<svg width="20" height="20" viewBox="0 0 20 20" fill="none" xmlns="http://www.w3.org/2000/svg">
<g id="ic:round-navigate-next">
<path id="Vector" d="M7.75835 5.59173C7.6811 5.66882 7.61981 5.76039 7.57799 5.86121C7.53617 5.96202 7.51465 6.07009 7.51465 6.17923C7.51465 6.28837 7.53617 6.39643 7.57799 6.49725C7.61981 6.59806 7.6811 6.68963 7.75835 6.76673L10.9917 10.0001L7.75835 13.2334C7.60254 13.3892 7.515 13.6005 7.515 13.8209C7.515 14.0412 7.60254 14.2526 7.75835 14.4084C7.91417 14.5642 8.1255 14.6517 8.34585 14.6517C8.56621 14.6517 8.77754 14.5642 8.93335 14.4084L12.7584 10.5834C12.8356 10.5063 12.8969 10.4147 12.9387 10.3139C12.9805 10.2131 13.0021 10.105 13.0021 9.99589C13.0021 9.88675 12.9805 9.77868 12.9387 9.67787C12.8969 9.57706 12.8356 9.48549 12.7584 9.40839L8.93335 5.58339C8.61669 5.26673 8.08335 5.26673 7.75835 5.59173Z" fill="black"/>
</g>
</svg>
